<svg width="50" height="50" viewBox="0 0 50 50" fill="none" xmlns="http://www.w3.org/2000/svg">
<g clip-path="url(#clip0_20_539)">
<path d="M25.0002 16.668C23.352 16.668 21.7409 17.1567 20.3705 18.0724C19 18.9881 17.9319 20.2896 17.3012 21.8123C16.6705 23.335 16.5055 25.0105 16.827 26.6271C17.1485 28.2436 17.9422 29.7284 19.1077 30.8939C20.2731 32.0593 21.7579 32.853 23.3745 33.1745C24.991 33.4961 26.6665 33.331 28.1892 32.7003C29.712 32.0696 31.0134 31.0015 31.9291 29.6311C32.8448 28.2606 33.3335 26.6495 33.3335 25.0013C33.3335 22.7912 32.4556 20.6715 30.8928 19.1087C29.33 17.5459 27.2103 16.668 25.0002 16.668ZM25.0002 29.168C24.1761 29.168 23.3705 28.9236 22.6853 28.4658C22.0001 28.0079 21.4661 27.3572 21.1507 26.5958C20.8353 25.8345 20.7528 24.9967 20.9136 24.1884C21.0744 23.3802 21.4712 22.6377 22.0539 22.055C22.6366 21.4723 23.3791 21.0755 24.1873 20.9147C24.9956 20.7539 25.8334 20.8364 26.5947 21.1518C27.3561 21.4672 28.0068 22.0012 28.4647 22.6864C28.9225 23.3716 29.1669 24.1772 29.1669 25.0013C29.1669 26.1064 28.7279 27.1662 27.9465 27.9476C27.1651 28.729 26.1053 29.168 25.0002 29.168Z" fill="#44C6E3"/>
<path d="M44.3627 28.9583L43.4377 28.425C43.8541 26.1593 43.8541 23.8366 43.4377 21.5708L44.3627 21.0375C45.074 20.6271 45.6975 20.0806 46.1976 19.4293C46.6978 18.7779 47.0647 18.0345 47.2775 17.2413C47.4903 16.4481 47.5448 15.6208 47.4379 14.8066C47.331 13.9924 47.0647 13.2072 46.6543 12.4958C46.2439 11.7845 45.6975 11.161 45.0461 10.6608C44.3948 10.1607 43.6513 9.79376 42.8581 9.58096C42.0649 9.36816 41.2376 9.31367 40.4234 9.4206C39.6092 9.52753 38.824 9.79379 38.1127 10.2042L37.1856 10.7396C35.4346 9.24358 33.4224 8.08385 31.2501 7.31875V6.25C31.2501 4.5924 30.5917 3.00268 29.4196 1.83058C28.2475 0.65848 26.6578 0 25.0001 0C23.3425 0 21.7528 0.65848 20.5807 1.83058C19.4086 3.00268 18.7502 4.5924 18.7502 6.25V7.31875C16.578 8.0866 14.5665 9.24917 12.8168 10.7479L11.8856 10.2083C10.449 9.37953 8.74199 9.15536 7.14011 9.58513C5.53824 10.0149 4.1727 11.0634 3.3439 12.5C2.5151 13.9366 2.29093 15.6436 2.7207 17.2455C3.15047 18.8473 4.19898 20.2129 5.63557 21.0417L6.56057 21.575C6.14413 23.8407 6.14413 26.1634 6.56057 28.4292L5.63557 28.9625C4.19898 29.7913 3.15047 31.1568 2.7207 32.7587C2.29093 34.3606 2.5151 36.0676 3.3439 37.5042C4.1727 38.9408 5.53824 39.9893 7.14011 40.419C8.74199 40.8488 10.449 40.6246 11.8856 39.7958L12.8127 39.2604C14.5642 40.7566 16.5772 41.9164 18.7502 42.6812V43.75C18.7502 45.4076 19.4086 46.9973 20.5807 48.1694C21.7528 49.3415 23.3425 50 25.0001 50C26.6578 50 28.2475 49.3415 29.4196 48.1694C30.5917 46.9973 31.2501 45.4076 31.2501 43.75V42.6812C33.4223 41.9134 35.4338 40.7508 37.1835 39.2521L38.1147 39.7896C39.5513 40.6184 41.2583 40.8426 42.8602 40.4128C44.4621 39.983 45.8276 38.9345 46.6564 37.4979C47.4852 36.0613 47.7094 34.3543 47.2796 32.7525C46.8498 31.1506 45.8013 29.7851 44.3647 28.9562L44.3627 28.9583ZM39.0543 21.0917C39.7598 23.648 39.7598 26.3478 39.0543 28.9042C38.9311 29.3491 38.9592 29.8224 39.1342 30.2496C39.3092 30.6768 39.6211 31.0339 40.021 31.2646L42.2793 32.5687C42.7581 32.845 43.1075 33.3002 43.2507 33.834C43.3939 34.3679 43.3191 34.9369 43.0429 35.4156C42.7666 35.8944 42.3114 36.2438 41.7776 36.387C41.2437 36.5302 40.6748 36.4554 40.196 36.1792L37.9335 34.8708C37.5333 34.639 37.0673 34.547 36.609 34.6092C36.1507 34.6715 35.7261 34.8844 35.4022 35.2146C33.5479 37.1076 31.2118 38.4583 28.646 39.1208C28.1981 39.236 27.8013 39.4968 27.5181 39.8623C27.2348 40.2278 27.0812 40.6772 27.0814 41.1396V43.75C27.0814 44.3025 26.8619 44.8324 26.4712 45.2231C26.0805 45.6138 25.5506 45.8333 24.9981 45.8333C24.4455 45.8333 23.9156 45.6138 23.5249 45.2231C23.1342 44.8324 22.9147 44.3025 22.9147 43.75V41.1417C22.915 40.6793 22.7613 40.2299 22.4781 39.8644C22.1948 39.4989 21.798 39.2381 21.3501 39.1229C18.7842 38.4577 16.4488 37.1041 14.596 35.2083C14.2721 34.8782 13.8475 34.6652 13.3892 34.603C12.9309 34.5407 12.465 34.6328 12.0647 34.8646L9.8064 36.1708C9.56938 36.3098 9.30721 36.4005 9.03499 36.4377C8.76278 36.4749 8.48589 36.4579 8.22026 36.3877C7.95464 36.3175 7.70553 36.1954 7.48728 36.0285C7.26902 35.8616 7.08594 35.6532 6.94856 35.4153C6.81118 35.1773 6.72222 34.9146 6.68681 34.6421C6.6514 34.3696 6.67023 34.0929 6.74221 33.8277C6.8142 33.5626 6.93792 33.3143 7.10626 33.0971C7.2746 32.88 7.48422 32.6983 7.72307 32.5625L9.9814 31.2583C10.3813 31.0276 10.6932 30.6706 10.8682 30.2434C11.0432 29.8161 11.0713 29.3429 10.9481 28.8979C10.2426 26.3415 10.2426 23.6418 10.9481 21.0854C11.069 20.6414 11.0396 20.1699 10.8643 19.7444C10.6891 19.3189 10.3779 18.9633 9.97932 18.7333L7.72098 17.4292C7.24221 17.1529 6.8928 16.6978 6.74961 16.1639C6.60641 15.63 6.68117 15.0611 6.95744 14.5823C7.23371 14.1035 7.68885 13.7541 8.22274 13.6109C8.75664 13.4677 9.32555 13.5425 9.80432 13.8187L12.0668 15.1271C12.4659 15.3594 12.9309 15.4525 13.3887 15.3918C13.8466 15.3311 14.2712 15.12 14.596 14.7917C16.4503 12.8986 18.7865 11.548 21.3522 10.8854C21.8015 10.7699 22.1993 10.5078 22.4827 10.1406C22.7661 9.77344 22.9189 9.32217 22.9168 8.85833V6.25C22.9168 5.69747 23.1363 5.16756 23.527 4.77686C23.9177 4.38616 24.4476 4.16667 25.0001 4.16667C25.5527 4.16667 26.0826 4.38616 26.4733 4.77686C26.864 5.16756 27.0835 5.69747 27.0835 6.25V8.85833C27.0833 9.32074 27.2369 9.77009 27.5201 10.1356C27.8034 10.5011 28.2002 10.7619 28.6481 10.8771C31.2148 11.542 33.551 12.8956 35.4043 14.7917C35.7282 15.1218 36.1528 15.3348 36.6111 15.397C37.0694 15.4593 37.5353 15.3672 37.9356 15.1354L40.1939 13.8292C40.4309 13.6902 40.6931 13.5995 40.9653 13.5623C41.2375 13.5251 41.5144 13.5421 41.78 13.6123C42.0457 13.6825 42.2948 13.8046 42.513 13.9715C42.7313 14.1384 42.9144 14.3468 43.0517 14.5847C43.1891 14.8227 43.2781 15.0854 43.3135 15.3579C43.3489 15.6304 43.3301 15.9071 43.2581 16.1723C43.1861 16.4374 43.0624 16.6857 42.894 16.9029C42.7257 17.12 42.5161 17.3017 42.2772 17.4375L40.0189 18.7417C39.6211 18.9723 39.3107 19.3281 39.1363 19.7535C38.9618 20.179 38.933 20.6502 39.0543 21.0938V21.0917Z" fill="#44C6E3"/>
</g>
<defs>
<clipPath id="clip0_20_539">
<rect width="50" height="50" fill="white"/>
</clipPath>
</defs>
</svg>
