<svg width="50" height="50" viewBox="0 0 50 50" fill="none" xmlns="http://www.w3.org/2000/svg">
<g clip-path="url(#clip0_13_49)">
<path d="M12.4417 46.4249C11.9863 46.4248 11.5435 46.2754 11.181 45.9997C10.8186 45.724 10.5565 45.3372 10.4348 44.8984C10.3131 44.4595 10.3385 43.9929 10.5072 43.5699C10.6759 43.1469 10.9785 42.7909 11.3687 42.5562C18.75 38.1229 18.75 28.602 18.75 22.9145C18.75 21.2569 19.4085 19.6672 20.5806 18.4951C21.7527 17.323 23.3424 16.6645 25 16.6645C26.6576 16.6645 28.2473 17.323 29.4194 18.4951C30.5915 19.6672 31.25 21.2569 31.25 22.9145C31.25 23.4671 31.0305 23.997 30.6398 24.3877C30.2491 24.7784 29.7192 24.9979 29.1667 24.9979C28.6141 24.9979 28.0842 24.7784 27.6935 24.3877C27.3028 23.997 27.0833 23.4671 27.0833 22.9145C27.0833 22.362 26.8638 21.8321 26.4731 21.4414C26.0824 21.0507 25.5525 20.8312 25 20.8312C24.4475 20.8312 23.9176 21.0507 23.5269 21.4414C23.1362 21.8321 22.9167 22.362 22.9167 22.9145C22.9167 29.0541 22.9167 40.4854 13.5125 46.1291C13.1889 46.3228 12.8188 46.4251 12.4417 46.4249ZM22.7812 49.3854C27.5354 44.5937 30.3125 37.8562 31.0333 29.3416C31.0576 29.0685 31.0278 28.7932 30.9455 28.5317C30.8632 28.2701 30.73 28.0273 30.5537 27.8173C30.3774 27.6073 30.1613 27.4342 29.9179 27.3079C29.6746 27.1815 29.4086 27.1045 29.1354 27.0812C28.862 27.0532 28.5858 27.0804 28.3232 27.1614C28.0606 27.2423 27.8169 27.3753 27.6068 27.5524C27.3966 27.7295 27.2243 27.9471 27.1 28.1922C26.9757 28.4373 26.902 28.7049 26.8833 28.9791C26.2354 36.5979 23.9271 42.3124 19.825 46.4395C19.4355 46.8315 19.2176 47.3623 19.2194 47.9149C19.2211 48.4675 19.4424 48.9969 19.8344 49.3864C20.2264 49.7759 20.7571 49.9938 21.3098 49.992C21.8624 49.9903 22.3917 49.769 22.7812 49.377V49.3854ZM33.6146 48.9979C34.8783 46.8981 35.9307 44.6782 36.7562 42.3708C36.9288 41.8547 36.8927 41.2916 36.6555 40.8019C36.4182 40.3121 35.9988 39.9346 35.4869 39.7501C34.975 39.5656 34.4112 39.5887 33.9161 39.8145C33.421 40.0402 33.0339 40.4508 32.8375 40.9583C32.104 43.0042 31.1703 44.9728 30.05 46.8354C29.908 47.0694 29.8135 47.3291 29.7719 47.5997C29.7303 47.8703 29.7424 48.1464 29.8075 48.4123C29.8726 48.6782 29.9894 48.9287 30.1513 49.1494C30.3132 49.3702 30.517 49.5569 30.751 49.6989C31.2237 49.9857 31.791 50.0729 32.328 49.9414C32.5939 49.8763 32.8444 49.7595 33.0651 49.5976C33.2859 49.4357 33.4726 49.2319 33.6146 48.9979ZM38.5417 35.8124C39.3135 31.558 39.6624 27.2377 39.5833 22.9145C39.5814 19.9631 38.6839 17.0817 37.0095 14.6511C35.3351 12.2205 32.9627 10.3552 30.2057 9.30168C27.4486 8.24813 24.4368 8.05593 21.5682 8.75047C18.6997 9.44501 16.1093 10.9936 14.1396 13.1916C13.9477 13.3937 13.7984 13.6322 13.7004 13.893C13.6024 14.1539 13.5577 14.4317 13.5689 14.7101C13.5802 14.9885 13.6472 15.2619 13.766 15.5139C13.8847 15.766 14.0529 15.9917 14.2604 16.1776C14.4679 16.3635 14.7107 16.5059 14.9742 16.5964C15.2378 16.6869 15.5168 16.7235 15.7947 16.7042C16.0727 16.685 16.344 16.6101 16.5925 16.4841C16.8411 16.3581 17.0618 16.1836 17.2417 15.9708C18.6485 14.4005 20.4987 13.2941 22.5477 12.7978C24.5968 12.3015 26.7482 12.4386 28.7176 13.191C30.6871 13.9434 32.3818 15.2757 33.5779 17.0119C34.7741 18.748 35.4152 20.8062 35.4167 22.9145C35.4935 26.9703 35.1711 31.0239 34.4542 35.0166C34.349 35.5586 34.4632 36.1202 34.7718 36.578C35.0804 37.0358 35.5581 37.3524 36.1 37.4583C36.2324 37.4847 36.3671 37.498 36.5021 37.4979C36.9846 37.4966 37.4518 37.3279 37.8238 37.0205C38.1958 36.7131 38.4495 36.2861 38.5417 35.8124ZM14.5833 22.9145C14.5827 22.333 14.6308 21.7525 14.7271 21.1791C14.7893 20.903 14.7946 20.6172 14.7427 20.339C14.6908 20.0608 14.5828 19.7961 14.4252 19.5611C14.2676 19.326 14.0638 19.1255 13.8262 18.9718C13.5886 18.8181 13.3221 18.7145 13.0431 18.6671C12.7641 18.6198 12.4784 18.6298 12.2034 18.6966C11.9284 18.7633 11.6699 18.8854 11.4436 19.0553C11.2173 19.2252 11.028 19.4395 10.8873 19.685C10.7466 19.9305 10.6573 20.2021 10.625 20.4833C10.4875 21.2864 10.4178 22.0997 10.4167 22.9145C10.4167 32.5916 7.6125 37.4979 2.08333 37.4979C1.5308 37.4979 1.0009 37.7173 0.610194 38.108C0.219493 38.4987 0 39.0287 0 39.5812C0 40.1337 0.219493 40.6636 0.610194 41.0543C1.0009 41.445 1.5308 41.6645 2.08333 41.6645C10.1437 41.6645 14.5833 34.9979 14.5833 22.9145ZM43.125 48.777C46.5535 40.5981 48.1875 31.7788 47.9167 22.9145C47.9263 19.4539 47.1423 16.0372 45.625 12.927C45.5053 12.6808 45.3383 12.4605 45.1335 12.2789C44.9287 12.0972 44.6901 11.9576 44.4313 11.8682C44.1726 11.7787 43.8987 11.741 43.6255 11.7574C43.3522 11.7738 43.0848 11.8438 42.8385 11.9635C42.5923 12.0832 42.3721 12.2502 42.1904 12.455C42.0087 12.6598 41.8691 12.8984 41.7797 13.1571C41.6902 13.4159 41.6526 13.6897 41.6689 13.963C41.6853 14.2363 41.7553 14.5037 41.875 14.7499C43.1147 17.2928 43.756 20.0856 43.75 22.9145C44.0122 31.1828 42.5072 39.4118 39.3354 47.052C39.2225 47.3015 39.1599 47.5708 39.1511 47.8445C39.1423 48.1182 39.1876 48.391 39.2844 48.6471C39.3811 48.9033 39.5274 49.1379 39.7149 49.3375C39.9024 49.5371 40.1274 49.6978 40.3771 49.8104C40.6469 49.9344 40.9405 49.9984 41.2375 49.9979C41.6359 49.9961 42.0255 49.8802 42.36 49.6639C42.6946 49.4475 42.9601 49.1397 43.125 48.777ZM6.25 29.1645V22.9145C6.25551 17.9434 8.23273 13.1775 11.7478 9.66235C15.2629 6.14724 20.0289 4.17003 25 4.16452C29.0591 4.15099 33.0108 5.46822 36.25 7.91452C36.692 8.24604 37.2476 8.38838 37.7946 8.31024C38.3416 8.2321 38.8351 7.93988 39.1667 7.49785C39.4982 7.05582 39.6405 6.5002 39.5624 5.95322C39.4843 5.40624 39.192 4.9127 38.75 4.58118C34.7904 1.59248 29.9609 -0.0173308 25 -0.00215194C18.9243 0.00501571 13.0995 2.42175 8.80339 6.7179C4.50723 11.0141 2.0905 16.8388 2.08333 22.9145V29.1645C2.08333 29.7171 2.30283 30.247 2.69353 30.6377C3.08423 31.0284 3.61413 31.2479 4.16667 31.2479C4.7192 31.2479 5.2491 31.0284 5.63981 30.6377C6.03051 30.247 6.25 29.7171 6.25 29.1645Z" fill="#44C6E3"/>
</g>
<defs>
<clipPath id="clip0_13_49">
<rect width="50" height="50" fill="white"/>
</clipPath>
</defs>
</svg>
