<svg width="50" height="50" viewBox="0 0 50 50" fill="none" xmlns="http://www.w3.org/2000/svg">
<g clip-path="url(#clip0_20_545)">
<path d="M29.4167 3.38877C28.1012 2.5368 26.5673 2.0835 25 2.0835C23.4327 2.0835 21.8988 2.5368 20.5833 3.38877L0 16.6659L8.33333 22.0409V42.5284L8.94375 43.1388C9.13958 43.3325 13.8479 47.9159 25 47.9159C36.1521 47.9159 40.8604 43.3325 41.0563 43.1388L41.6667 42.5284V22.0409L45.8333 19.3534V41.6659H50V16.6659L29.4167 3.38877ZM37.5 40.6575C33.7351 42.912 29.3818 43.9887 25 43.7492C20.6184 43.9892 16.2652 42.9133 12.5 40.6596V24.7284L20.5833 29.9367C21.8981 30.7907 23.4322 31.2452 25 31.2452C26.5678 31.2452 28.1019 30.7907 29.4167 29.9367L37.5 24.7284V40.6575ZM27.1583 26.4409C26.516 26.8587 25.7662 27.0811 25 27.0811C24.2338 27.0811 23.484 26.8587 22.8417 26.4409L7.6875 16.6659L22.8417 6.89085C23.484 6.47305 24.2338 6.25065 25 6.25065C25.7662 6.25065 26.516 6.47305 27.1583 6.89085L42.3125 16.6659L27.1583 26.4409Z" fill="#44C6E3"/>
</g>
<defs>
<clipPath id="clip0_20_545">
<rect width="50" height="50" fill="white"/>
</clipPath>
</defs>
</svg>
