<svg width="50" height="50" viewBox="0 0 50 50" fill="none" xmlns="http://www.w3.org/2000/svg">
<g clip-path="url(#clip0_20_547)">
<path d="M39.5833 0H10.4167C7.65501 0.00330804 5.00741 1.10184 3.05462 3.05462C1.10184 5.00741 0.00330804 7.65501 0 10.4167L0 39.5833C0.00330804 42.345 1.10184 44.9926 3.05462 46.9454C5.00741 48.8982 7.65501 49.9967 10.4167 50H39.5833C42.345 49.9967 44.9926 48.8982 46.9454 46.9454C48.8982 44.9926 49.9967 42.345 50 39.5833V10.4167C49.9967 7.65501 48.8982 5.00741 46.9454 3.05462C44.9926 1.10184 42.345 0.00330804 39.5833 0V0ZM14.5833 45.8333V43.75C14.5833 40.9873 15.6808 38.3378 17.6343 36.3843C19.5878 34.4308 22.2373 33.3333 25 33.3333C27.7627 33.3333 30.4122 34.4308 32.3657 36.3843C34.3192 38.3378 35.4167 40.9873 35.4167 43.75V45.8333H14.5833ZM45.8333 39.5833C45.8333 41.2409 45.1749 42.8306 44.0028 44.0028C42.8306 45.1749 41.2409 45.8333 39.5833 45.8333V43.75C39.5833 39.8823 38.0469 36.1729 35.312 33.438C32.5771 30.7031 28.8677 29.1667 25 29.1667C21.1323 29.1667 17.4229 30.7031 14.688 33.438C11.9531 36.1729 10.4167 39.8823 10.4167 43.75V45.8333C8.75906 45.8333 7.16935 45.1749 5.99725 44.0028C4.82515 42.8306 4.16667 41.2409 4.16667 39.5833V10.4167C4.16667 8.75906 4.82515 7.16935 5.99725 5.99725C7.16935 4.82515 8.75906 4.16667 10.4167 4.16667H39.5833C41.2409 4.16667 42.8306 4.82515 44.0028 5.99725C45.1749 7.16935 45.8333 8.75906 45.8333 10.4167V39.5833Z" fill="#44C6E3"/>
<path d="M25.0002 8.33398C23.352 8.33398 21.7409 8.82273 20.3705 9.7384C19 10.6541 17.9319 11.9556 17.3012 13.4783C16.6705 15.001 16.5055 16.6766 16.827 18.2931C17.1485 19.9096 17.9422 21.3944 19.1077 22.5599C20.2731 23.7253 21.7579 24.519 23.3745 24.8405C24.991 25.1621 26.6665 24.997 28.1892 24.3663C29.712 23.7356 31.0134 22.6675 31.9291 21.2971C32.8448 19.9267 33.3335 18.3155 33.3335 16.6673C33.3335 14.4572 32.4556 12.3376 30.8928 10.7748C29.33 9.21196 27.2103 8.33398 25.0002 8.33398ZM25.0002 20.834C24.1761 20.834 23.3705 20.5896 22.6853 20.1318C22.0001 19.6739 21.4661 19.0232 21.1507 18.2618C20.8353 17.5005 20.7528 16.6627 20.9136 15.8544C21.0744 15.0462 21.4712 14.3038 22.0539 13.721C22.6366 13.1383 23.3791 12.7415 24.1873 12.5807C24.9956 12.4199 25.8334 12.5025 26.5947 12.8178C27.3561 13.1332 28.0068 13.6672 28.4647 14.3524C28.9225 15.0376 29.1669 15.8432 29.1669 16.6673C29.1669 17.7724 28.7279 18.8322 27.9465 19.6136C27.1651 20.395 26.1053 20.834 25.0002 20.834Z" fill="#44C6E3"/>
</g>
<defs>
<clipPath id="clip0_20_547">
<rect width="50" height="50" fill="white"/>
</clipPath>
</defs>
</svg>
